<svg xmlns="http://www.w3.org/2000/svg" x="0px" y="0px" width="100" height="100" viewBox="0,0,256,256">
<g fill="#555555" fill-rule="nonzero" stroke="none" stroke-width="1" stroke-linecap="butt" stroke-linejoin="miter" stroke-miterlimit="10" stroke-dasharray="" stroke-dashoffset="0" font-family="none" font-weight="none" font-size="none" text-anchor="none" style="mix-blend-mode: normal"><g transform="scale(10.66667,10.66667)"><path d="M10,2c-4.40644,0 -8,3.59357 -8,8c0,4.40643 3.59356,8 8,8c1.84402,0 3.54097,-0.63457 4.89648,-1.68945l5.39649,5.39648c0.25082,0.26124 0.62327,0.36648 0.97371,0.27512c0.35044,-0.09136 0.62411,-0.36503 0.71547,-0.71547c0.09136,-0.35044 -0.01388,-0.72289 -0.27512,-0.97371l-5.39648,-5.39648c1.05488,-1.35551 1.68945,-3.05246 1.68945,-4.89648c0,-4.40643 -3.59356,-8 -8,-8zM10,4c3.32556,0 6,2.67445 6,6c0,3.32555 -2.67444,6 -6,6c-3.32556,0 -6,-2.67445 -6,-6c0,-3.32555 2.67444,-6 6,-6z"></path></g></g>
</svg>